{"asset":{"version":"2.0","generator":"babylon.js glTF exporter for 3dsmax 2020 v20200917.1"},"scene":0,"scenes":[{"nodes":[0,1]}],"nodes":[{"mesh":0,"translation":[0.135073245,0.836591661,-0.0900084451],"name":"Pyramid001"},{"name":"Default light"}],"meshes":[{"primitives":[{"attributes":{"POSITION":1,"TANGENT":2,"NORMAL":3,"TEXCOORD_0":4},"indices":0,"material":0},{"attributes":{"POSITION":6,"TANGENT":7,"NORMAL":8,"TEXCOORD_0":9},"indices":5,"material":1},{"attributes":{"POSITION":11,"TANGENT":12,"NORMAL":13,"TEXCOORD_0":14},"indices":10,"material":2},{"attributes":{"POSITION":16,"TANGENT":17,"NORMAL":18,"TEXCOORD_0":19},"indices":15,"material":3}],"name":"Pyramid001"}],"accessors":[{"bufferView":0,"componentType":5123,"count":3,"type":"SCALAR","name":"accessorIndices"},{"bufferView":1,"componentType":5126,"count":3,"max":[0.5715,1.143,0.5715],"min":[0.0,0.0,-0.5715],"type":"VEC3","name":"accessorPositions"},{"bufferView":2,"componentType":5126,"count":3,"type":"VEC4","name":"accessorTangents"},{"bufferView":1,"byteOffset":36,"componentType":5126,"count":3,"type":"VEC3","name":"accessorNormals"},{"bufferView":3,"componentType":5126,"count":3,"type":"VEC2","name":"accessorUVs"},{"bufferView":0,"byteOffset":8,"componentType":5123,"count":3,"type":"SCALAR","name":"accessorIndices"},{"bufferView":1,"byteOffset":72,"componentType":5126,"count":3,"max":[0.5715,1.143,0.5715],"min":[-0.5715,0.0,0.0],"type":"VEC3","name":"accessorPositions"},{"bufferView":2,"byteOffset":48,"componentType":5126,"count":3,"type":"VEC4","name":"accessorTangents"},{"bufferView":1,"byteOffset":108,"componentType":5126,"count":3,"type":"VEC3","name":"accessorNormals"},{"bufferView":3,"byteOffset":24,"componentType":5126,"count":3,"type":"VEC2","name":"accessorUVs"},{"bufferView":0,"byteOffset":16,"componentType":5123,"count":3,"type":"SCALAR","name":"accessorIndices"},{"bufferView":1,"byteOffset":144,"componentType":5126,"count":3,"max":[0.0,1.143,0.5715],"min":[-0.5715,0.0,-0.5715],"type":"VEC3","name":"accessorPositions"},{"bufferView":2,"byteOffset":96,"componentType":5126,"count":3,"type":"VEC4","name":"accessorTangents"},{"bufferView":1,"byteOffset":180,"componentType":5126,"count":3,"type":"VEC3","name":"accessorNormals"},{"bufferView":3,"byteOffset":48,"componentType":5126,"count":3,"type":"VEC2","name":"accessorUVs"},{"bufferView":0,"byteOffset":24,"componentType":5123,"count":15,"type":"SCALAR","name":"accessorIndices"},{"bufferView":1,"byteOffset":216,"componentType":5126,"count":15,"max":[0.5715,1.143,0.5715],"min":[-0.5715,0.0,-0.5715],"type":"VEC3","name":"accessorPositions"},{"bufferView":2,"byteOffset":144,"componentType":5126,"count":15,"type":"VEC4","name":"accessorTangents"},{"bufferView":1,"byteOffset":396,"componentType":5126,"count":15,"type":"VEC3","name":"accessorNormals"},{"bufferView":3,"byteOffset":72,"componentType":5126,"count":15,"type":"VEC2","name":"accessorUVs"}],"bufferViews":[{"buffer":0,"byteLength":56,"name":"bufferViewScalar"},{"buffer":0,"byteOffset":56,"byteLength":576,"byteStride":12,"name":"bufferViewFloatVec3"},{"buffer":0,"byteOffset":632,"byteLength":384,"byteStride":16,"name":"bufferViewFloatVec4"},{"buffer":0,"byteOffset":1016,"byteLength":192,"byteStride":8,"name":"bufferViewFloatVec2"}],"buffers":[{"uri":"963.bin","byteLength":1208}],"materials":[{"pbrMetallicRoughness":{"baseColorFactor":[0.0470588244,0.6313726,0.8235294,1.0],"metallicFactor":0.0,"roughnessFactor":0.450053632},"name":"01 - Default"},{"pbrMetallicRoughness":{"baseColorFactor":[0.13333334,0.4862745,0.117647059,1.0],"metallicFactor":0.0,"roughnessFactor":0.450053632},"name":"Material #60"},{"pbrMetallicRoughness":{"baseColorFactor":[0.7607843,0.0627451,0.0627451,1.0],"metallicFactor":0.0,"roughnessFactor":0.450053632},"name":"Material #61"},{"pbrMetallicRoughness":{"baseColorFactor":[1.0,1.0,0.0,1.0],"metallicFactor":0.0,"roughnessFactor":0.450053632},"name":"Material #62"}]}