{"asset":{"version":"2.0","generator":"babylon.js glTF exporter for 3dsmax 2020 v20200917.1"},"extensionsUsed":["KHR_texture_transform"],"extensionsRequired":["KHR_texture_transform"],"scene":0,"scenes":[{"nodes":[0,1]}],"nodes":[{"mesh":0,"translation":[0.0,0.08133401,0.0],"rotation":[0.7071068,0.0,0.0,0.7071067],"scale":[0.03937008,0.03937008,0.03937008],"name":"root"},{"name":"Default light"}],"meshes":[{"primitives":[{"attributes":{"POSITION":1,"NORMAL":2,"TEXCOORD_0":3},"indices":0,"material":0},{"attributes":{"POSITION":5,"NORMAL":6,"TEXCOORD_0":7},"indices":4,"material":1},{"attributes":{"POSITION":9,"NORMAL":10,"TEXCOORD_0":11},"indices":8,"material":2}],"name":"root"}],"accessors":[{"bufferView":0,"componentType":5123,"count":2946,"type":"SCALAR","name":"accessorIndices"},{"bufferView":1,"componentType":5126,"count":2946,"max":[1.1102314,1.11975336,2.10694218],"min":[-1.11227477,-1.10329819,-2.097313],"type":"VEC3","name":"accessorPositions"},{"bufferView":1,"byteOffset":35352,"componentType":5126,"count":2946,"type":"VEC3","name":"accessorNormals"},{"bufferView":2,"componentType":5126,"count":2946,"type":"VEC2","name":"accessorUVs"},{"bufferView":0,"byteOffset":5892,"componentType":5123,"count":2952,"type":"SCALAR","name":"accessorIndices"},{"bufferView":1,"byteOffset":70704,"componentType":5126,"count":2952,"max":[1.10387528,1.11339986,2.09369278],"min":[-1.10592937,-1.09808838,-2.08461285],"type":"VEC3","name":"accessorPositions"},{"bufferView":1,"byteOffset":106128,"componentType":5126,"count":2952,"type":"VEC3","name":"accessorNormals"},{"bufferView":2,"byteOffset":23568,"componentType":5126,"count":2952,"type":"VEC2","name":"accessorUVs"},{"bufferView":0,"byteOffset":11796,"componentType":5123,"count":2892,"type":"SCALAR","name":"accessorIndices"},{"bufferView":1,"byteOffset":141552,"componentType":5126,"count":2892,"max":[1.1102314,1.11975276,2.10694218],"min":[-1.11227322,-1.10329819,-2.097313],"type":"VEC3","name":"accessorPositions"},{"bufferView":1,"byteOffset":176256,"componentType":5126,"count":2892,"type":"VEC3","name":"accessorNormals"},{"bufferView":2,"byteOffset":47184,"componentType":5126,"count":2892,"type":"VEC2","name":"accessorUVs"}],"bufferViews":[{"buffer":0,"byteLength":17580,"name":"bufferViewScalar"},{"buffer":0,"byteOffset":17580,"byteLength":210960,"byteStride":12,"name":"bufferViewFloatVec3"},{"buffer":0,"byteOffset":228540,"byteLength":70320,"byteStride":8,"name":"bufferViewFloatVec2"}],"buffers":[{"uri":"felicity.bin","byteLength":298860}],"materials":[{"pbrMetallicRoughness":{"baseColorTexture":{"index":0,"extensions":{"KHR_texture_transform":{"offset":[0.0,0.0],"scale":[1.0,1.0],"texCoord":0}}},"metallicRoughnessTexture":{"index":1,"extensions":{"KHR_texture_transform":{"offset":[0.0,0.0],"scale":[1.0,1.0],"texCoord":0}}}},"name":"q6.ard_0"},{"pbrMetallicRoughness":{"baseColorTexture":{"index":2,"extensions":{"KHR_texture_transform":{"offset":[0.0,0.0],"scale":[1.0,1.0],"texCoord":0}}},"metallicRoughnessTexture":{"index":3,"extensions":{"KHR_texture_transform":{"offset":[0.0,0.0],"scale":[1.0,1.0],"texCoord":0}}}},"name":"q6.ard_1"},{"pbrMetallicRoughness":{"baseColorFactor":[0.7764706,0.7490196,0.7019608,1.0],"metallicFactor":0.0,"roughnessFactor":0.7022211},"name":"Material_2"}],"textures":[{"sampler":0,"source":0,"name":"q6.ard_0_calcRgba.png"},{"sampler":0,"source":1,"name":"MR_q6.ard_0_calcRgba.png_spec_q6.ard_0_calcSpecRgbH_gloss_2,56.png"},{"sampler":0,"source":2,"name":"q6.ard_1_calcRgba.png"},{"sampler":0,"source":3,"name":"MR_q6.ard_1_calcRgba.png_spec_q6.ard_1_calcSpecRgbH_gloss_2,56.png"}],"images":[{"uri":"./q6.ard_0_calcRgba.png"},{"uri":"./MR_q6.ard_0_calcRgba.png_spec_q6.ard_0_calcSpecRgbH_gloss_2,56.png"},{"uri":"./q6.ard_1_calcRgba.png"},{"uri":"./MR_q6.ard_1_calcRgba.png_spec_q6.ard_1_calcSpecRgbH_gloss_2,56.png"}],"samplers":[{"magFilter":9729,"minFilter":9987}]}