{
  "asset": {
    "version": "2.0",
    "generator": "GLTFExporter"
  },
  "scenes": [
    {
      "name": "Scene",
      "nodes": [
        3
      ]
    }
  ],
  "scene": 0,
  "nodes": [
    {
      "name": "root_primitive2",
      "extras": {
        "name": "root_primitive2"
      },
      "mesh": 0
    },
    {
      "name": "root_primitive0",
      "extras": {
        "name": "root_primitive0"
      },
      "mesh": 1
    },
    {
      "name": "root_primitive1",
      "extras": {
        "name": "root_primitive1"
      },
      "mesh": 2
    },
    {
      "matrix": [
        0.03937008,
        0,
        0,
        0,
        0,
        -5.599999978160697e-9,
        0.03937008,
        0,
        0,
        -0.03937008,
        -5.599999978160697e-9,
        0,
        -0.003001016,
        0.08133401,
        0,
        1
      ],
      "name": "root",
      "extras": {
        "name": "root"
      },
      "children": [
        0,
        1,
        2
      ]
    }
  ],
  "bufferViews": [
    {
      "buffer": 0,
      "byteOffset": 0,
      "byteLength": 34704,
      "target": 34962,
      "byteStride": 12
    },
    {
      "buffer": 0,
      "byteOffset": 34704,
      "byteLength": 34704,
      "target": 34962,
      "byteStride": 12
    },
    {
      "buffer": 0,
      "byteOffset": 69408,
      "byteLength": 11568,
      "target": 34963
    },
    {
      "buffer": 0,
      "byteOffset": 80976,
      "byteLength": 35352,
      "target": 34962,
      "byteStride": 12
    },
    {
      "buffer": 0,
      "byteOffset": 116328,
      "byteLength": 35352,
      "target": 34962,
      "byteStride": 12
    },
    {
      "buffer": 0,
      "byteOffset": 151680,
      "byteLength": 23568,
      "target": 34962,
      "byteStride": 8
    },
    {
      "buffer": 0,
      "byteOffset": 175248,
      "byteLength": 11784,
      "target": 34963
    },
    {
      "buffer": 0,
      "byteOffset": 187032,
      "byteLength": 35424,
      "target": 34962,
      "byteStride": 12
    },
    {
      "buffer": 0,
      "byteOffset": 222456,
      "byteLength": 35424,
      "target": 34962,
      "byteStride": 12
    },
    {
      "buffer": 0,
      "byteOffset": 257880,
      "byteLength": 23616,
      "target": 34962,
      "byteStride": 8
    },
    {
      "buffer": 0,
      "byteOffset": 281496,
      "byteLength": 11808,
      "target": 34963
    }
  ],
  "buffers": [
    {
      "byteLength": 293304,
      "uri": "data:application/octet-stream;base64,"
    }
  ],
  "accessors": [
    {
      "bufferView": 0,
      "componentType": 5126,
      "count": 2892,
      "max": [
        1.1102313995361328,
        1.1197527647018433,
        2.1069421768188477
      ],
      "min": [
        -1.1122732162475586,
        -1.1032981872558594,
        -2.0973129272460938
      ],
      "type": "VEC3"
    },
    {
      "bufferView": 1,
      "componentType": 5126,
      "count": 2892,
      "max": [
        1,
        1,
        1
      ],
      "min": [
        -1,
        -1,
        -1
      ],
      "type": "VEC3"
    },
    {
      "bufferView": 2,
      "componentType": 5125,
      "count": 2892,
      "max": [
        2891
      ],
      "min": [
        0
      ],
      "type": "SCALAR"
    },
    {
      "bufferView": 3,
      "componentType": 5126,
      "count": 2946,
      "max": [
        1.1102313995361328,
        1.119753360748291,
        2.1069421768188477
      ],
      "min": [
        -1.1122747659683228,
        -1.1032981872558594,
        -2.0973129272460938
      ],
      "type": "VEC3"
    },
    {
      "bufferView": 4,
      "componentType": 5126,
      "count": 2946,
      "max": [
        1,
        1,
        1
      ],
      "min": [
        -1,
        -1,
        -1
      ],
      "type": "VEC3"
    },
    {
      "bufferView": 5,
      "componentType": 5126,
      "count": 2946,
      "max": [
        1,
        1
      ],
      "min": [
        0.03931033983826637,
        0
      ],
      "type": "VEC2"
    },
    {
      "bufferView": 6,
      "componentType": 5125,
      "count": 2946,
      "max": [
        2945
      ],
      "min": [
        0
      ],
      "type": "SCALAR"
    },
    {
      "bufferView": 7,
      "componentType": 5126,
      "count": 2952,
      "max": [
        1.1038752794265747,
        1.113399863243103,
        2.0936927795410156
      ],
      "min": [
        -1.1059293746948242,
        -1.0980883836746216,
        -2.0846128463745117
      ],
      "type": "VEC3"
    },
    {
      "bufferView": 8,
      "componentType": 5126,
      "count": 2952,
      "max": [
        1,
        1,
        1
      ],
      "min": [
        -1,
        -1,
        -1
      ],
      "type": "VEC3"
    },
    {
      "bufferView": 9,
      "componentType": 5126,
      "count": 2952,
      "max": [
        1,
        1
      ],
      "min": [
        0,
        0
      ],
      "type": "VEC2"
    },
    {
      "bufferView": 10,
      "componentType": 5125,
      "count": 2952,
      "max": [
        2951
      ],
      "min": [
        0
      ],
      "type": "SCALAR"
    }
  ],
  "materials": [
    {
      "pbrMetallicRoughness": {
        "baseColorFactor": [
          0.7764705882352941,
          0.7450980392156863,
          0.7019607843137254,
          1
        ],
        "metallicFactor": 0,
        "roughnessFactor": 0.7022211
      },
      "name": "Material_2"
    },
    {
      "pbrMetallicRoughness": {
        "metallicFactor": 1,
        "roughnessFactor": 1,
        "metallicRoughnessTexture": {
          "index": 0
        },
        "baseColorTexture": {
          "index": 1
        }
      },
      "name": "q6.ard_0"
    },
    {
      "pbrMetallicRoughness": {
        "metallicFactor": 1,
        "roughnessFactor": 1,
        "metallicRoughnessTexture": {
          "index": 2
        },
        "baseColorTexture": {
          "index": 3
        }
      },
      "name": "q6.ard_1"
    }
  ],
  "meshes": [
    {
      "primitives": [
        {
          "mode": 4,
          "attributes": {
            "POSITION": 0,
            "NORMAL": 1
          },
          "indices": 2,
          "material": 0
        }
      ]
    },
    {
      "primitives": [
        {
          "mode": 4,
          "attributes": {
            "POSITION": 3,
            "NORMAL": 4,
            "TEXCOORD_0": 5
          },
          "indices": 6,
          "material": 1
        }
      ]
    },
    {
      "primitives": [
        {
          "mode": 4,
          "attributes": {
            "POSITION": 7,
            "NORMAL": 8,
            "TEXCOORD_0": 9
          },
          "indices": 10,
          "material": 2
        }
      ]
    }
  ],
  "textures": [
    {
      "sampler": 0,
      "source": 0,
      "name": "q6.ard_0 (Metallic Roughness)"
    },
    {
      "sampler": 1,
      "source": 1,
      "name": "q6.ard_0 (Base Color)"
    },
    {
      "sampler": 2,
      "source": 2,
      "name": "q6.ard_1 (Metallic Roughness)"
    },
    {
      "sampler": 3,
      "source": 3,
      "name": "q6.ard_1 (Base Color)"
    }
  ],
  "samplers": [
    {
      "magFilter": 9729,
      "minFilter": 9987,
      "wrapS": 10497,
      "wrapT": 10497
    },
    {
      "magFilter": 9729,
      "minFilter": 9987,
      "wrapS": 10497,
      "wrapT": 10497
    },
    {
      "magFilter": 9729,
      "minFilter": 9987,
      "wrapS": 10497,
      "wrapT": 10497
    },
    {
      "magFilter": 9729,
      "minFilter": 9987,
      "wrapS": 10497,
      "wrapT": 10497
    }
  ],
  "images": [
    {
      "mimeType": "image/png",
      "uri": "data:image/png;base64,"
    },
    {
      "mimeType": "image/png",
      "uri": "data:image/png;base64,"
    },
    {
      "mimeType": "image/png",
      "uri": "data:image/png;base64,"
    },
    {
      "mimeType": "image/png",
      "uri": "data:image/png;base64,"
    }
  ]
}